<svg width="181" height="103" viewBox="0 0 181 103" fill="none" xmlns="http://www.w3.org/2000/svg">
<path d="M63.8955 34H61.7861V22.9521H56.1172V34H54.0166V21.1504H63.8955V34ZM74.5566 34H67.2881V21.1504H74.5566V22.9258H69.3887V26.4238H74.2314V28.1816H69.3887V32.2158H74.5566V34ZM85.8506 25.0352C85.8506 26.377 85.4111 27.4053 84.5322 28.1201C83.6533 28.835 82.4023 29.1924 80.7793 29.1924H79.4434V34H77.3428V21.1504H81.043C82.6484 21.1504 83.8496 21.4785 84.6465 22.1348C85.4492 22.791 85.8506 23.7578 85.8506 25.0352ZM79.4434 27.4258H80.5596C81.6377 27.4258 82.4287 27.2383 82.9326 26.8633C83.4365 26.4883 83.6885 25.9023 83.6885 25.1055C83.6885 24.3672 83.4629 23.8164 83.0117 23.4531C82.5605 23.0898 81.8574 22.9082 80.9023 22.9082H79.4434V27.4258ZM88.417 21.1504H92.2314C94.001 21.1504 95.2783 21.4082 96.0635 21.9238C96.8545 22.4395 97.25 23.2539 97.25 24.3672C97.25 25.1172 97.0566 25.7412 96.6699 26.2393C96.2832 26.7373 95.7266 27.0508 95 27.1797V27.2676C95.9023 27.4375 96.5645 27.7744 96.9863 28.2783C97.4141 28.7764 97.6279 29.4531 97.6279 30.3086C97.6279 31.4629 97.2236 32.3682 96.415 33.0244C95.6123 33.6748 94.4932 34 93.0576 34H88.417V21.1504ZM90.5176 26.459H92.5391C93.418 26.459 94.0596 26.3213 94.4639 26.0459C94.8682 25.7646 95.0703 25.29 95.0703 24.6221C95.0703 24.0186 94.8506 23.582 94.4111 23.3125C93.9775 23.043 93.2861 22.9082 92.3369 22.9082H90.5176V26.459ZM90.5176 28.1641V32.2334H92.75C93.6289 32.2334 94.291 32.0664 94.7363 31.7324C95.1875 31.3926 95.4131 30.8594 95.4131 30.1328C95.4131 29.4648 95.1846 28.9697 94.7275 28.6475C94.2705 28.3252 93.5762 28.1641 92.6445 28.1641H90.5176ZM108.825 30.1328C108.825 31.4043 108.412 32.3682 107.586 33.0244C106.766 33.6748 105.559 34 103.965 34H100.3V21.1504H102.4V26.3711H103.895C105.5 26.3711 106.722 26.6934 107.56 27.3379C108.403 27.9824 108.825 28.9141 108.825 30.1328ZM102.4 32.251H103.842C104.779 32.251 105.488 32.084 105.969 31.75C106.449 31.4102 106.689 30.8711 106.689 30.1328C106.689 29.4355 106.458 28.9316 105.995 28.6211C105.538 28.3047 104.759 28.1465 103.657 28.1465H102.4V32.251ZM112.736 34H110.627V21.1504H112.736V34ZM116.12 21.1504H118.045V27.8301C118.045 28.5273 118.027 29.2334 117.992 29.9482C117.957 30.6572 117.931 31.1377 117.913 31.3896H117.992L124.558 21.1504H127.01V34H125.076V27.373C125.076 26.3594 125.132 25.1289 125.243 23.6816H125.173L118.581 34H116.12V21.1504ZM121.631 20.1221C120.389 20.1221 119.478 19.8994 118.897 19.4541C118.323 19.0029 118.004 18.2529 117.939 17.2041H119.812C119.847 17.626 119.926 17.9541 120.049 18.1885C120.178 18.4229 120.359 18.5928 120.594 18.6982C120.834 18.7979 121.197 18.8477 121.684 18.8477C122.258 18.8477 122.694 18.7217 122.993 18.4697C123.292 18.2119 123.474 17.79 123.538 17.2041H125.445C125.357 18.2119 125.003 18.9502 124.382 19.4189C123.761 19.8877 122.844 20.1221 121.631 20.1221ZM12.3477 59H9.87793L4.58691 52.4873V59H2.48633V46.1504H4.58691V52.373L9.79004 46.1504H12.0928L6.90723 52.3555L12.3477 59ZM25.4609 52.5576C25.4609 54.6494 24.9365 56.2754 23.8877 57.4355C22.8447 58.5957 21.3652 59.1758 19.4492 59.1758C17.5098 59.1758 16.0186 58.6016 14.9756 57.4531C13.9385 56.2988 13.4199 54.6611 13.4199 52.54C13.4199 50.4189 13.9414 48.79 14.9844 47.6533C16.0332 46.5166 17.5273 45.9482 19.4668 45.9482C21.377 45.9482 22.8535 46.5254 23.8965 47.6797C24.9395 48.834 25.4609 50.46 25.4609 52.5576ZM15.6523 52.5576C15.6523 54.1396 15.9717 55.3408 16.6104 56.1611C17.249 56.9756 18.1953 57.3828 19.4492 57.3828C20.6973 57.3828 21.6377 56.9785 22.2705 56.1699C22.9092 55.3613 23.2285 54.1572 23.2285 52.5576C23.2285 50.9814 22.9121 49.7861 22.2793 48.9717C21.6523 48.1572 20.7148 47.75 19.4668 47.75C18.207 47.75 17.2549 48.1572 16.6104 48.9717C15.9717 49.7861 15.6523 50.9814 15.6523 52.5576ZM38.3545 59H36.2451V53.208H30.3213V59H28.2207V46.1504H30.3213V51.4062H36.2451V46.1504H38.3545V59ZM47.2051 47.7676C45.998 47.7676 45.0488 48.1953 44.3574 49.0508C43.666 49.9062 43.3203 51.0869 43.3203 52.5928C43.3203 54.1689 43.6514 55.3613 44.3135 56.1699C44.9814 56.9785 45.9453 57.3828 47.2051 57.3828C47.75 57.3828 48.2773 57.3301 48.7871 57.2246C49.2969 57.1133 49.8271 56.9727 50.3779 56.8027V58.6045C49.3701 58.9854 48.2275 59.1758 46.9502 59.1758C45.0693 59.1758 43.625 58.6074 42.6172 57.4707C41.6094 56.3281 41.1055 54.6963 41.1055 52.5752C41.1055 51.2393 41.3486 50.0703 41.835 49.0684C42.3271 48.0664 43.0361 47.2988 43.9619 46.7656C44.8877 46.2324 45.9746 45.9658 47.2227 45.9658C48.5352 45.9658 49.748 46.2412 50.8613 46.792L50.1055 48.541C49.6719 48.3359 49.2119 48.1572 48.7256 48.0049C48.2451 47.8467 47.7383 47.7676 47.2051 47.7676ZM61.1182 59L59.835 55.4316H54.9219L53.665 59H51.4502L56.2578 46.0977H58.543L63.3506 59H61.1182ZM59.2812 53.6211L58.0771 50.123C57.9893 49.8887 57.8662 49.5195 57.708 49.0156C57.5557 48.5117 57.4502 48.1426 57.3916 47.9082C57.2334 48.6289 57.002 49.417 56.6973 50.2725L55.5371 53.6211H59.2812ZM74.6885 59H72.5879V47.9521H68.9316C68.4688 51.7021 68.0967 54.2539 67.8154 55.6074C67.54 56.9609 67.1504 57.9043 66.6465 58.4375C66.1426 58.9648 65.4746 59.2197 64.6426 59.2021C64.2148 59.2021 63.8076 59.1289 63.4209 58.9824V57.2334C63.7549 57.3799 64.0801 57.4531 64.3965 57.4531C64.8184 57.4531 65.1465 57.2012 65.3809 56.6973C65.6211 56.1875 65.8818 55.0654 66.1631 53.3311C66.4502 51.5967 66.79 49.2031 67.1826 46.1504H74.6885V59ZM82.5283 59H80.4277V47.9521H76.6484V46.1504H86.3076V47.9521H82.5283V59ZM88.2852 46.1504H90.21V52.8301C90.21 53.5273 90.1924 54.2334 90.1572 54.9482C90.1221 55.6572 90.0957 56.1377 90.0781 56.3896H90.1572L96.7227 46.1504H99.1748V59H97.2412V52.373C97.2412 51.3594 97.2969 50.1289 97.4082 48.6816H97.3379L90.7461 59H88.2852V46.1504ZM112.675 59H110.565V53.208H104.642V59H102.541V46.1504H104.642V51.4062H110.565V46.1504H112.675V59ZM123.688 46.1504V47.9521H118.159V59H116.059V46.1504H123.688ZM137.188 52.5576C137.188 54.6494 136.663 56.2754 135.614 57.4355C134.571 58.5957 133.092 59.1758 131.176 59.1758C129.236 59.1758 127.745 58.6016 126.702 57.4531C125.665 56.2988 125.146 54.6611 125.146 52.54C125.146 50.4189 125.668 48.79 126.711 47.6533C127.76 46.5166 129.254 45.9482 131.193 45.9482C133.104 45.9482 134.58 46.5254 135.623 47.6797C136.666 48.834 137.188 50.46 137.188 52.5576ZM127.379 52.5576C127.379 54.1396 127.698 55.3408 128.337 56.1611C128.976 56.9756 129.922 57.3828 131.176 57.3828C132.424 57.3828 133.364 56.9785 133.997 56.1699C134.636 55.3613 134.955 54.1572 134.955 52.5576C134.955 50.9814 134.639 49.7861 134.006 48.9717C133.379 48.1572 132.441 47.75 131.193 47.75C129.934 47.75 128.981 48.1572 128.337 48.9717C127.698 49.7861 127.379 50.9814 127.379 52.5576ZM139.947 46.1504H143.762C145.531 46.1504 146.809 46.4082 147.594 46.9238C148.385 47.4395 148.78 48.2539 148.78 49.3672C148.78 50.1172 148.587 50.7412 148.2 51.2393C147.813 51.7373 147.257 52.0508 146.53 52.1797V52.2676C147.433 52.4375 148.095 52.7744 148.517 53.2783C148.944 53.7764 149.158 54.4531 149.158 55.3086C149.158 56.4629 148.754 57.3682 147.945 58.0244C147.143 58.6748 146.023 59 144.588 59H139.947V46.1504ZM142.048 51.459H144.069C144.948 51.459 145.59 51.3213 145.994 51.0459C146.398 50.7646 146.601 50.29 146.601 49.6221C146.601 49.0186 146.381 48.582 145.941 48.3125C145.508 48.043 144.816 47.9082 143.867 47.9082H142.048V51.459ZM142.048 53.1641V57.2334H144.28C145.159 57.2334 145.821 57.0664 146.267 56.7324C146.718 56.3926 146.943 55.8594 146.943 55.1328C146.943 54.4648 146.715 53.9697 146.258 53.6475C145.801 53.3252 145.106 53.1641 144.175 53.1641H142.048ZM160.355 55.1328C160.355 56.4043 159.942 57.3682 159.116 58.0244C158.296 58.6748 157.089 59 155.495 59H151.83V46.1504H153.931V51.3711H155.425C157.03 51.3711 158.252 51.6934 159.09 52.3379C159.934 52.9824 160.355 53.9141 160.355 55.1328ZM153.931 57.251H155.372C156.31 57.251 157.019 57.084 157.499 56.75C157.979 56.4102 158.22 55.8711 158.22 55.1328C158.22 54.4355 157.988 53.9316 157.525 53.6211C157.068 53.3047 156.289 53.1465 155.188 53.1465H153.931V57.251ZM164.267 59H162.157V46.1504H164.267V59ZM167.65 46.1504H169.575V52.8301C169.575 53.5273 169.558 54.2334 169.522 54.9482C169.487 55.6572 169.461 56.1377 169.443 56.3896H169.522L176.088 46.1504H178.54V59H176.606V52.373C176.606 51.3594 176.662 50.1289 176.773 48.6816H176.703L170.111 59H167.65V46.1504ZM173.161 45.1221C171.919 45.1221 171.008 44.8994 170.428 44.4541C169.854 44.0029 169.534 43.2529 169.47 42.2041H171.342C171.377 42.626 171.456 42.9541 171.579 43.1885C171.708 43.4229 171.89 43.5928 172.124 43.6982C172.364 43.7979 172.728 43.8477 173.214 43.8477C173.788 43.8477 174.225 43.7217 174.523 43.4697C174.822 43.2119 175.004 42.79 175.068 42.2041H176.976C176.888 43.2119 176.533 43.9502 175.912 44.4189C175.291 44.8877 174.374 45.1221 173.161 45.1221ZM72.8252 82.251H74.5303V87.542H72.5V84H62.9463V71.1504H65.0469V82.1982H70.7158V71.1504H72.8252V82.251ZM83.873 84H76.6045V71.1504H83.873V72.9258H78.7051V76.4238H83.5479V78.1816H78.7051V82.2158H83.873V84ZM96.793 84H94.6836V78.208H88.7598V84H86.6592V71.1504H88.7598V76.4062H94.6836V71.1504H96.793V84ZM104.615 84H102.515V72.9521H98.7354V71.1504H108.395V72.9521H104.615V84ZM118.88 75.0352C118.88 76.377 118.44 77.4053 117.562 78.1201C116.683 78.835 115.432 79.1924 113.809 79.1924H112.473V84H110.372V71.1504H114.072C115.678 71.1504 116.879 71.4785 117.676 72.1348C118.479 72.791 118.88 73.7578 118.88 75.0352ZM112.473 77.4258H113.589C114.667 77.4258 115.458 77.2383 115.962 76.8633C116.466 76.4883 116.718 75.9023 116.718 75.1055C116.718 74.3672 116.492 73.8164 116.041 73.4531C115.59 73.0898 114.887 72.9082 113.932 72.9082H112.473V77.4258Z" fill="black"/>
<path d="M140 73V101.75H40V73" stroke="black" stroke-width="2"/>
<path d="M140 29.75V1H40V29.75" stroke="black" stroke-width="2"/>
</svg>
